<svg version="1.1" id="Layer_1" xmlns="http://www.w3.org/2000/svg" xmlns:xlink="http://www.w3.org/1999/xlink" x="0px" y="0px"
	 width="100%" viewBox="0 0 438 101" enable-background="new 0 0 438 101" xml:space="preserve">
<path fill="#FEFEFE" opacity="1.000000" stroke="none" 
	d="
M321.000000,102.000000 
	C215.333344,102.000000 110.166672,101.978600 5.000144,102.095436 
	C1.576183,102.099236 0.881697,101.426804 0.900372,97.999496 
	C1.070192,66.833755 1.052671,35.666481 0.915236,4.500423 
	C0.902077,1.516326 1.518005,0.916950 4.500002,0.918877 
	C148.166595,1.011730 291.833252,1.011724 435.499847,0.918910 
	C438.481445,0.916983 439.097839,1.515778 439.084778,4.500268 
	C438.947571,35.832996 438.947632,67.166786 439.084747,98.499512 
	C439.097809,101.483398 438.483765,102.094070 435.499847,102.084061 
	C397.500244,101.956474 359.500031,102.000000 321.000000,102.000000 
z"/>
<path fill="#020202" opacity="1.000000" stroke="none" 
	d="
M276.000000,83.004845 
	C252.169632,83.004784 228.839249,83.012337 205.508881,83.000702 
	C196.820358,82.996368 193.572220,77.434288 197.960983,69.801956 
	C204.256821,58.853115 210.576141,47.911915 217.177628,37.146618 
	C222.125397,29.078093 229.287369,24.887287 239.134369,24.924860 
	C282.128265,25.088911 325.123199,24.992107 368.117737,24.997908 
	C377.097839,24.999119 380.374603,30.613586 375.840210,38.445271 
	C369.595154,49.231453 363.321289,60.004326 356.842957,70.650963 
	C351.916229,78.747635 344.816315,83.140114 334.992371,83.054680 
	C315.496246,82.885139 295.997589,83.004738 276.000000,83.004845 
z"/>
<path fill="#0C0C0C" opacity="1.000000" stroke="none" 
	d="
M85.388199,72.555199 
	C87.369179,70.389656 85.850662,67.910927 85.968628,65.826706 
	C86.240685,61.020206 85.938866,56.183418 86.120415,51.368362 
	C86.180923,49.763554 84.842896,47.193352 87.339432,46.688534 
	C89.618340,46.227722 92.427582,45.460613 94.427933,47.334293 
	C95.286362,48.138374 95.173538,48.839836 96.743294,48.101376 
	C103.281525,45.025589 108.695457,46.127617 112.269165,50.862053 
	C116.122345,55.966724 115.891045,64.778618 111.781158,69.453766 
	C107.963776,73.796181 102.212120,74.337898 95.939034,70.959305 
	C95.818283,70.894279 95.613968,70.984390 94.755661,71.076431 
	C94.755661,73.328438 94.502747,75.734985 94.812386,78.066826 
	C95.332870,81.986450 93.652946,82.760910 90.052803,82.731232 
	C86.683319,82.703453 85.652390,81.624924 86.005211,78.428902 
	C86.202759,76.639404 85.895813,74.794212 85.388199,72.555199 
z"/>
<path fill="#080808" opacity="1.000000" stroke="none" 
	d="
M122.626450,46.466331 
	C125.437721,48.519737 127.674957,47.908356 130.419220,46.800804 
	C135.134537,44.897770 140.564316,47.140190 143.426331,51.468822 
	C146.826202,56.610886 146.496628,64.732529 142.705902,69.223495 
	C139.515945,73.002716 133.810394,74.325554 129.096008,72.333656 
	C128.051361,71.892281 127.072411,71.295418 125.946274,70.709290 
	C124.811790,73.255630 125.178291,75.797813 125.441261,78.147499 
	C125.891846,82.173553 124.115829,82.719208 120.628250,82.717995 
	C117.395844,82.716866 116.801804,81.600891 116.858467,78.682419 
	C117.032501,69.720184 117.180870,60.741703 116.810532,51.791416 
	C116.630219,47.433765 117.754974,45.581978 122.626450,46.466331 
z"/>
<path fill="#070707" opacity="1.000000" stroke="none" 
	d="
M84.949448,71.760162 
	C84.960213,72.136284 84.955414,72.357597 84.974274,72.466660 
	C80.519020,73.164169 75.609772,74.851463 74.217453,68.032227 
	C73.898735,66.471207 72.461266,66.783180 71.339371,66.770546 
	C68.675552,66.740540 65.991699,66.962112 63.351986,66.707870 
	C60.126881,66.397247 58.222717,67.256943 57.061226,70.605240 
	C55.353394,75.528488 51.042835,71.886162 47.146362,73.450905 
	C50.077732,66.523422 52.625519,60.472057 55.199039,54.431652 
	C56.825035,50.615223 58.738617,46.899445 60.063393,42.982986 
	C61.278374,39.391106 63.322292,38.484413 67.029358,38.456123 
	C70.668510,38.428352 71.847649,40.031471 73.014679,42.924095 
	C76.862686,52.461845 80.945824,61.904728 84.949448,71.760162 
z"/>
<path fill="#080808" opacity="1.000000" stroke="none" 
	d="
M173.261047,62.030922 
	C171.042679,62.030922 169.282211,62.030922 167.315323,62.030922 
	C169.788086,67.062973 172.557602,68.442757 176.899902,65.877800 
	C180.458054,63.776028 182.168564,65.945053 183.113464,68.045311 
	C184.115265,70.272026 181.317184,71.121986 179.702118,71.764160 
	C173.983597,74.037918 168.224701,74.223907 163.134476,70.271271 
	C158.348038,66.554543 157.760834,61.291359 159.007751,55.774666 
	C160.519928,49.084358 167.575394,45.010368 174.983948,46.345741 
	C181.555145,47.530190 186.162567,53.493912 185.741791,59.923931 
	C185.614822,61.864113 184.689117,62.048454 183.215515,62.036652 
	C180.050171,62.011299 176.884476,62.030159 173.261047,62.030922 
z"/>
<path fill="#000000" opacity="1.000000" stroke="none" 
	d="
M156.319717,42.999340 
	C156.319672,52.151356 156.052185,60.816353 156.434677,69.452560 
	C156.620102,73.639473 154.299423,72.867828 151.834717,73.051582 
	C148.990768,73.263611 147.753967,72.720848 147.847275,69.379173 
	C148.111954,59.901386 148.086136,50.407940 147.861298,40.928085 
	C147.781860,37.578964 148.476410,36.399342 152.121445,36.409660 
	C155.798431,36.420074 156.856918,37.680737 156.330353,41.004501 
	C156.253189,41.491497 156.319672,42.001251 156.319717,42.999340 
z"/>
<path fill="#F3F3F3" opacity="1.000000" stroke="none" 
	d="
M246.678680,38.717861 
	C248.598480,38.636147 250.104263,38.719616 251.594284,38.602455 
	C253.548386,38.448803 254.196625,39.234055 254.182465,41.179451 
	C254.110870,51.004627 254.083069,60.831284 254.182816,70.655968 
	C254.220047,74.322571 251.581009,72.968918 249.993210,72.921837 
	C248.245636,72.870010 245.237396,74.459747 245.369965,70.504318 
	C245.425720,68.840858 245.140976,67.133102 245.420258,65.516167 
	C246.264679,60.627304 244.328079,59.362453 239.533646,59.611217 
	C231.194794,60.043896 231.075089,59.730133 231.194916,68.474182 
	C231.236359,71.499573 231.178116,73.406952 227.155228,73.152107 
	C223.895798,72.945625 222.055603,72.901062 222.236832,68.696938 
	C222.616623,59.886833 222.580826,51.040398 222.251266,42.226246 
	C222.097031,38.101151 224.425369,38.640366 226.945618,38.598728 
	C229.393066,38.558289 231.825836,38.337620 231.142090,42.037838 
	C231.112335,42.198875 231.135849,42.370251 231.138718,42.536739 
	C231.324265,53.310360 231.321198,53.209244 242.032578,52.879887 
	C244.663589,52.798988 245.364288,52.009342 245.462250,49.449650 
	C245.598099,45.901127 244.378174,42.213306 246.678680,38.717861 
z"/>
<path fill="#F6F6F6" opacity="1.000000" stroke="none" 
	d="
M316.013000,65.618286 
	C311.652832,73.266205 306.709259,74.873138 298.856293,71.524879 
	C298.074890,71.191719 297.667267,70.286682 296.659821,71.721840 
	C294.684296,74.536240 291.406708,73.148041 288.984985,72.696175 
	C287.015228,72.328651 288.137390,69.523796 288.117310,67.850037 
	C288.005737,58.550758 288.243530,49.244251 287.974854,39.951405 
	C287.868439,36.270729 289.808319,36.402035 292.273865,36.515179 
	C294.502563,36.617451 297.144745,35.825466 296.794952,39.756721 
	C296.534058,42.688904 296.743530,45.662941 296.743530,49.195587 
	C302.188873,45.392811 307.461121,44.907883 312.231445,48.873562 
	C317.439117,53.202835 317.916168,59.041553 316.013000,65.618286 
z"/>
<path fill="#F2F2F2" opacity="1.000000" stroke="none" 
	d="
M275.342194,58.696053 
	C275.345581,56.075920 275.343262,53.910717 275.347351,51.745522 
	C275.357147,46.584034 277.227844,45.272041 282.317352,46.420666 
	C284.684174,46.954819 283.954163,48.586117 283.968414,49.894428 
	C284.037476,56.222717 284.081848,62.554085 283.934845,68.879715 
	C283.902893,70.256119 285.201874,72.770912 282.617584,72.865456 
	C280.241516,72.952400 277.050018,74.555222 275.507538,71.702965 
	C274.590485,70.007248 274.493408,70.478638 273.285309,71.160973 
	C264.572296,76.082085 257.587402,72.225708 257.273010,62.335148 
	C257.135498,58.009079 257.391815,53.668709 257.201202,49.346661 
	C257.037537,45.636017 259.596039,46.458443 261.586670,46.490273 
	C263.511993,46.521061 266.206665,45.479916 265.982483,49.271053 
	C265.796021,52.424534 265.967133,55.598034 265.938904,58.762306 
	C265.909851,62.021931 265.765045,65.672089 270.224884,65.754242 
	C274.305511,65.829407 275.241608,62.613190 275.342194,58.696053 
z"/>
<path fill="#F1F1F1" opacity="1.000000" stroke="none" 
	d="
M324.666687,71.544830 
	C321.786957,74.072800 319.238586,74.081161 317.545380,70.935356 
	C316.233032,68.497131 317.362457,66.420609 319.856567,65.411346 
	C323.028198,64.127914 325.169678,66.646194 324.666687,71.544830 
z"/>
<path fill="#F8F8F8" opacity="1.000000" stroke="none" 
	d="
M94.784210,59.962593 
	C95.629639,54.378475 97.783058,52.201370 101.549019,52.983112 
	C105.682144,53.841061 106.481667,56.984512 106.234795,60.595261 
	C105.999344,64.038918 104.203491,66.371346 100.657417,66.432579 
	C96.823708,66.498787 95.054375,64.047958 94.784210,59.962593 
z"/>
<path fill="#F4F4F4" opacity="1.000000" stroke="none" 
	d="
M131.060257,66.515503 
	C128.562607,66.197624 127.009796,65.091736 126.098145,63.144867 
	C124.392250,59.501915 125.827553,54.330166 129.054886,53.243290 
	C132.546112,52.067543 135.297821,53.261154 136.691391,56.759186 
	C138.465149,61.211582 136.408295,64.915428 131.060257,66.515503 
z"/>
<path fill="#EEEEEE" opacity="1.000000" stroke="none" 
	d="
M68.414215,52.672012 
	C69.384720,55.145969 70.180214,57.281189 70.968658,59.397491 
	C70.537590,59.661739 70.285217,59.953056 70.050598,59.939400 
	C67.350273,59.782181 62.474533,60.819759 62.356506,59.390217 
	C62.033478,55.477596 64.408020,51.714462 66.507744,47.813419 
	C67.183586,49.577656 67.711395,50.955467 68.414215,52.672012 
z"/>
<path fill="#D7D7D7" opacity="1.000000" stroke="none" 
	d="
M176.822723,54.621174 
	C177.297577,56.172646 177.590149,57.388004 175.790619,57.520630 
	C174.636902,57.605656 173.455139,57.692673 172.318588,57.538395 
	C170.603149,57.305527 168.498215,58.493443 167.250839,56.798649 
	C166.524490,55.811745 167.725204,54.628448 168.482208,53.816822 
	C170.086151,52.097107 172.092590,51.443359 174.324020,52.456409 
	C175.190170,52.849625 175.875885,53.640266 176.822723,54.621174 
z"/>
<path fill="#070707" opacity="1.000000" stroke="none" 
	d="
M297.423676,63.232910 
	C297.071411,62.047886 296.856018,61.232037 296.812134,60.407063 
	C296.629639,56.976547 297.427307,53.984673 301.209595,53.028706 
	C304.177307,52.278610 306.672668,53.506081 307.704071,56.317516 
	C308.900848,59.579632 308.968506,63.181995 305.772369,65.393158 
	C302.775635,67.466347 299.754730,66.904655 297.423676,63.232910 
z"/>
</svg>